<svg viewBox="0 0 143 25" id="svg5" xmlns="http://www.w3.org/2000/svg" xmlns:svg="http://www.w3.org/2000/svg"><defs id="defs9"/><path d="M5 0H138a5 5 0 015 5v15a5 5 0 01-5 5H5a5 5 0 01-5-5V5a5 5 0 015-5z" style="fill:#000" id="path2"/><g aria-label="ESPHome" id="component-text" style="font-weight:700;font-size:25px;font-family:Montserrat;letter-spacing:1.1px;fill:#fffffc"><path d="m10.8 10.55h8.425V13.7H10.8zm.3 7.2h9.525V21H7.075V3.5H20.3v3.25h-9.2z" id="path11"/><path d="m30.699989 21.3q-2.1.0-4.025-.55-1.925-.575-3.1-1.475l1.375-3.05q1.125.8 2.65 1.325 1.55.5 3.125.5 1.2.0 1.925-.225.75-.25 1.1-.675t.35-.975q0-.7-.55-1.1-.55-.425-1.45-.675-.9-.275-2-.5-1.075-.25-2.175-.6-1.075-.35-1.975-.9-.9-.55-1.475-1.45-.55-.9-.55-2.3.0-1.5.8-2.725.825-1.25 2.45-1.975 1.65-.75 4.125-.75 1.65.0 3.25.4 1.6.375 2.825 1.15l-1.25 3.075q-1.225-.7-2.45-1.025-1.225-.35-2.4-.35-1.175.0-1.925.275t-1.075.725q-.325.425-.325 1 0 .675.55 1.1.55.4 1.45.65t1.975.5q1.1.25 2.175.575 1.1.325 2 .875t1.45 1.45q.575.9.575 2.275.0 1.475-.825 2.7t-2.475 1.975q-1.625.75-4.125.75z" id="path13"/><path d="M41.999999 21V3.5h7.575q2.35.0 4.05.775 1.7.75 2.625 2.175t.925 3.4q0 1.95-.925 3.375t-2.625 2.2q-1.7.75-4.05.75h-5.325l1.8-1.825V21zm4.05-6.2-1.8-1.925h5.1q1.875.0 2.8-.8t.925-2.225q0-1.45-.925-2.25-.925-.8-2.8-.8h-5.1l1.8-1.925z" id="path15"/><path d="m73.150005 3.5h4.05V21h-4.05zm-7.95 17.5h-4.05V3.5h4.05zm8.25-7.175h-8.55V10.4h8.55z" id="path17"/><path d="m88.575015 21.2q-2.15.0-3.825-.9-1.65-.9-2.625-2.45-.95-1.575-.95-3.575.0-2.025.95-3.575.975-1.575 2.625-2.45 1.675-.9 3.825-.9 2.125.0 3.8.9 1.675.875 2.625 2.425t.95 3.6q0 2-.95 3.575-.95 1.55-2.625 2.45t-3.8.9zm0-3.2q.975.0 1.75-.45t1.225-1.275q.45-.85.45-2 0-1.175-.45-2t-1.225-1.275q-.775-.45-1.75-.45t-1.75.45-1.25 1.275q-.45.825-.45 2 0 1.15.45 2 .475.825 1.25 1.275t1.75.45z" id="path19"/><path d="m116.87504 7.35q1.6.0 2.825.65 1.25.625 1.95 1.95.725 1.3.725 3.35V21h-3.9v-7.1q0-1.625-.675-2.4t-1.9-.775q-.85.0-1.525.4-.675.375-1.05 1.15t-.375 1.975V21h-3.9v-7.1q0-1.625-.675-2.4-.65-.775-1.875-.775-.85.0-1.525.4-.675.375-1.05 1.15t-.375 1.975V21H99.650037V7.55h3.725003v3.675l-.7-1.075q.7-1.375 1.975-2.075 1.3-.725 2.95-.725 1.85.0 3.225.95 1.4.925 1.85 2.85l-1.375-.375q.675-1.575 2.15-2.5 1.5-.925 3.425-.925z" id="path21"/><path d="m133.74916 21.2q-2.3.0-4.05-.9-1.725-.9-2.675-2.45-.95-1.575-.95-3.575.0-2.025.925-3.575.95-1.575 2.575-2.45 1.625-.9 3.675-.9 1.975.0 3.55.85 1.6.825 2.525 2.4.925 1.55.925 3.725.0.225-.025.525-.025.275-.05.525h-10.925V13.1h8.875l-1.5.675q0-1.05-.425-1.825-.425-.775-1.175-1.2-.75-.45-1.75-.45t-1.775.45q-.75.425-1.175 1.225-.425.775-.425 1.85v.6q0 1.1.475 1.95.5.825 1.375 1.275.9.425 2.1.425 1.075.0 1.875-.325.825-.325 1.5-.975l2.075 2.25q-.925 1.05-2.325 1.625-1.4.55-3.225.55z" id="path23"/></g></svg>